<?xml version="1.0" ?><!DOCTYPE svg  PUBLIC '-//W3C//DTD SVG 1.1//EN'  'http://www.w3.org/Graphics/SVG/1.1/DTD/svg11.dtd'><svg enable-background="new 0 0 512 512" height="512px" id="Layer_1" version="1.1" viewBox="0 0 512 512" width="512px" xml:space="preserve" xmlns="http://www.w3.org/2000/svg" xmlns:xlink="http://www.w3.org/1999/xlink"><g><path d="M339.673,409.5c55.295,0,100.281-44.985,100.281-100.279V178.445v-38.689V111.5c0-4.971-4.029-9-9-9H81.046   c-4.971,0-9,4.029-9,9v28.256v38.689v130.775c0,55.294,44.986,100.279,100.281,100.279H339.673z M90.046,120.5h331.908v19.256   v38.689c0,45.369-36.911,82.279-82.281,82.279H172.327c-45.37,0-82.281-36.91-82.281-82.279v-38.689V120.5z M90.046,309.221   v-73.521c18.139,25.987,48.256,43.025,82.281,43.025h167.346c34.025,0,64.143-17.038,82.281-43.025v73.521   c0,45.369-36.911,82.279-82.281,82.279H172.327C126.957,391.5,90.046,354.59,90.046,309.221z"/><path d="M255.999,249.909c18.83,0,34.149-15.319,34.149-34.148s-15.319-34.147-34.149-34.147   c-18.829,0-34.147,15.318-34.147,34.147S237.17,249.909,255.999,249.909z M255.999,199.613c8.905,0,16.149,7.244,16.149,16.147   c0,8.904-7.244,16.148-16.149,16.148c-8.903,0-16.147-7.244-16.147-16.148C239.852,206.857,247.096,199.613,255.999,199.613z"/></g></svg>