<?xml version="1.0" ?><!DOCTYPE svg  PUBLIC '-//W3C//DTD SVG 1.1//EN'  'http://www.w3.org/Graphics/SVG/1.1/DTD/svg11.dtd'><svg enable-background="new 0 0 512 512" height="512px" id="Layer_1" version="1.1" viewBox="0 0 512 512" width="512px" xml:space="preserve" xmlns="http://www.w3.org/2000/svg" xmlns:xlink="http://www.w3.org/1999/xlink"><g><path d="M244.269,223.106c-13.055-8.014-27.324-13.144-42.412-15.249c-43.45-6.06-86.346,14.183-109.285,51.559   c-2.6,4.236-1.273,9.778,2.963,12.379c1.469,0.901,3.094,1.33,4.699,1.33c3.025,0,5.98-1.525,7.68-4.293   c19.196-31.278,55.098-48.219,91.458-43.146c12.615,1.76,24.553,6.053,35.481,12.761c4.236,2.6,9.779,1.274,12.378-2.962   C249.831,231.248,248.505,225.706,244.269,223.106z"/><path d="M486.817,150.18c-0.173,0.279-4.341,6.87-15.202,9.194c-11.539,2.469-32.526,0.493-66.983-22.937   c-24.117-16.398-48.257-22.345-71.739-17.679c-27.574,5.48-46.62,24.222-55.313,34.573l-42.137-25.86   c-4.236-2.601-9.777-1.273-12.379,2.963l-21.214,34.564c-5.03-0.501-10.102-0.764-15.145-0.764   c-25.674,0-51.141,6.509-73.646,18.824c-23.216,12.703-42.846,31.407-56.768,54.091c-21.357,34.8-27.885,75.834-18.38,115.543   c9.504,39.709,33.904,73.341,68.703,94.698c24.09,14.784,51.692,22.6,79.822,22.601c0.001,0,0.002,0,0.004,0   c25.671,0,51.138-6.512,73.646-18.829c23.217-12.706,42.847-31.412,56.77-54.096c30.753-50.106,29.966-113.226-1.57-162.458   l21.209-34.558c2.6-4.236,1.273-9.778-2.963-12.379l-40.408-24.8c7.689-8.644,22.7-22.37,43.276-26.459   c18.577-3.692,38.13,1.323,58.109,14.908c26.295,17.88,49.395,26.884,68.89,26.884c4.509,0,8.824-0.481,12.942-1.446   c18.084-4.236,25.307-16.242,26.071-17.597l-15.68-8.842L486.817,150.18z M301.516,387.651   c-24.727,40.289-67.746,64.342-115.078,64.341c-24.805-0.001-49.15-6.896-70.406-19.942   c-30.702-18.842-52.229-48.513-60.614-83.547c-8.386-35.033-2.626-71.235,16.217-101.937   c24.722-40.282,67.74-64.331,115.072-64.331c6.195,0,12.441,0.433,18.564,1.286c18.434,2.57,35.877,8.844,51.849,18.646   c0.998,0.612,1.986,1.236,2.965,1.871c14.68,9.527,27.161,21.598,37.135,35.914C327.879,283.975,329.565,341.949,301.516,387.651z    M303.789,218.932c-0.14-0.167-0.288-0.325-0.429-0.492c-2.367-2.805-4.83-5.518-7.388-8.136c-0.283-0.29-0.566-0.581-0.853-0.869   c-1.265-1.274-2.548-2.53-3.858-3.759c-0.185-0.174-0.374-0.342-0.56-0.515c-1.198-1.112-2.416-2.204-3.651-3.278   c-0.273-0.238-0.544-0.478-0.818-0.714c-1.358-1.164-2.737-2.305-4.139-3.422c-0.284-0.228-0.573-0.45-0.859-0.675   c-1.292-1.016-2.6-2.013-3.927-2.988c-0.204-0.15-0.403-0.304-0.608-0.452c-1.463-1.064-2.951-2.101-4.456-3.116   c-0.341-0.23-0.685-0.459-1.028-0.687c-1.541-1.022-3.097-2.03-4.681-3.002c-1.03-0.633-2.068-1.248-3.109-1.854   c-0.315-0.184-0.633-0.363-0.949-0.545c-0.747-0.428-1.497-0.851-2.251-1.266c-0.346-0.191-0.691-0.381-1.039-0.569   c-0.797-0.432-1.598-0.854-2.401-1.271c-0.269-0.14-0.536-0.282-0.806-0.421c-1.07-0.547-2.145-1.082-3.226-1.604   c-0.184-0.088-0.369-0.172-0.554-0.26c-0.897-0.43-1.799-0.849-2.703-1.26c-0.344-0.155-0.688-0.307-1.031-0.46   c-0.778-0.346-1.559-0.685-2.341-1.017c-0.346-0.147-0.691-0.295-1.037-0.438c-0.919-0.382-1.841-0.754-2.766-1.118   c-0.187-0.072-0.371-0.149-0.558-0.222c-1.113-0.433-2.23-0.85-3.353-1.255c-0.284-0.103-0.57-0.2-0.854-0.301   c-0.846-0.301-1.693-0.594-2.545-0.878c-0.368-0.124-0.737-0.245-1.107-0.365c-0.814-0.265-1.631-0.522-2.45-0.774   c-0.337-0.104-0.674-0.209-1.011-0.311c-2.28-0.684-4.577-1.313-6.891-1.888c-0.35-0.087-0.7-0.169-1.051-0.253   c-0.487-0.118-0.973-0.24-1.462-0.354l12.658-20.624l82.749,50.786L303.789,218.932z"/></g></svg>