<?xml version="1.0" ?><!DOCTYPE svg  PUBLIC '-//W3C//DTD SVG 1.1//EN'  'http://www.w3.org/Graphics/SVG/1.1/DTD/svg11.dtd'><svg enable-background="new 0 0 64 64" height="64px" id="Layer_1" version="1.1" viewBox="0 0 64 64" width="64px" xml:space="preserve" xmlns="http://www.w3.org/2000/svg" xmlns:xlink="http://www.w3.org/1999/xlink"><g><path d="M39.3,16H36c-0.1,0-0.1,0-0.2,0L35,12.3l3.6-3.6c0.2-0.2,0.3-0.5,0.3-0.8c0-0.3-0.2-0.6-0.4-0.7l-5-3.6   c-0.2-0.2-0.5-0.2-0.8-0.2c-0.3,0-0.5,0.2-0.7,0.4l-4.4,6.6c-0.1,0.1-0.1,0.2-0.1,0.3l-1.2,5.4C26.3,16,26.1,16,26,16h-1.6   C12.1,16,2,26.3,2,39c0,12.5,10.2,23,22.3,23h15C51.8,62,62,51.7,62,39S51.8,16,39.3,16z M29.5,11.3l3.7-5.6l3.2,2.3l-3.2,3.2   c-0.2,0.2-0.3,0.6-0.3,0.9l1.1,5.3l-3.3,0.3c-0.2,0-0.4,0-0.5,0.1L28,18.1L29.5,11.3z M39.3,60h-15C13.3,60,4,50.4,4,39   c0-11.6,9.2-21,20.4-21h1.5l-0.2,1c0,0.2,0,0.3,0,0.5c-1.9,1-3.3,2.2-3.4,2.3c-0.4,0.4-0.5,1-0.1,1.4c0.2,0.2,0.5,0.4,0.8,0.4   c0.2,0,0.5-0.1,0.6-0.2c0,0,3.6-3,6.7-3.5l0.6-0.1c0.1,0,0.2,0,0.2,0c0,0,0,0,0.1,0c1.7,0,5.6,1.7,7.4,3.4c0.4,0.4,1,0.4,1.4,0   c0.4-0.4,0.4-1,0-1.4c-1.1-1-2.6-1.9-4.1-2.6c0.1,0,0.1-0.1,0.2-0.1c0.2-0.2,0.2-0.5,0.2-0.8l0-0.1h3.1C50.7,18,60,27.4,60,39   S50.7,60,39.3,60z"/><path d="M18.8,40.2c1,0.4,2,0.6,3,0.6c3.4,0,6.3-2,7.6-5.1c0.5-1.4,0.6-2.5,0.2-3.5c-0.8-1.8-2.9-2.6-5.3-3.6l-1.1-0.5   C20.8,27.2,18,26,15.6,26c-2.6,0-3.6,1.4-4.1,2.5c-0.6,1.4-0.5,3,0.3,4.8C13.1,36.2,16,39.1,18.8,40.2z M13.4,29.3   c0.2-0.6,0.7-1.3,2.3-1.3c2,0,4.6,1.1,6.8,1.9l1.1,0.5c2,0.8,3.7,1.5,4.2,2.5c0.2,0.5,0.2,1.2-0.2,2c-0.9,2.4-3.2,3.9-5.7,3.9   c-0.8,0-1.5-0.1-2.3-0.4c-2.3-0.9-4.9-3.4-5.9-5.8C13.3,31.6,12.9,30.4,13.4,29.3z"/><path d="M47.7,26c-2.4,0-5.2,1.2-7.5,2.1l-1.1,0.4c-2.4,1-4.5,1.8-5.3,3.6c-0.4,1-0.4,2.2,0.2,3.5c1.2,3.1,4.2,5.1,7.6,5.1   c0,0,0,0,0,0c1,0,2-0.2,3-0.6c2-0.8,4.2-2.6,5.7-4.7c1.8-2.5,2.4-5,1.6-7C51.4,27.4,50.3,26,47.7,26z M48.6,34.3   c-1.3,1.8-3.2,3.4-4.8,4c-0.7,0.3-1.5,0.4-2.3,0.4h0c-2.5,0-4.8-1.5-5.7-3.9c-0.3-0.9-0.4-1.5-0.2-2c0.4-1,2.2-1.7,4.2-2.5l1.1-0.5   c2.1-0.9,4.8-1.9,6.8-1.9c1.5,0,2,0.7,2.2,1.3C50.5,30.6,50,32.4,48.6,34.3z"/><path d="M49.6,43.4l-5.7,5l-5.2-5.2c-0.4-0.4-1-0.4-1.4,0c0,0,0,0.1-0.1,0.1c0,0-0.1,0-0.1,0l-5.7,5l-5.2-5.2c-0.4-0.4-1-0.4-1.4,0   c0,0,0,0.1-0.1,0.1c0,0-0.1,0-0.1,0l-5.7,5l-5.2-5.2c-0.4-0.4-1-0.4-1.4,0c-0.4,0.4-0.4,1,0,1.4l5.8,5.8c0.2,0.2,0.5,0.3,0.7,0.3   c0.2,0,0.5-0.1,0.7-0.2l6-5.2l5.2,5.1c0.2,0.2,0.5,0.3,0.7,0.3c0.2,0,0.5-0.1,0.7-0.2l6-5.2l5.2,5.1c0.2,0.2,0.5,0.3,0.7,0.3   c0.2,0,0.5-0.1,0.7-0.2l6.4-5.6c0.4-0.4,0.5-1,0.1-1.4C50.7,43.1,50,43.1,49.6,43.4z"/><path d="M38,54H26c-0.6,0-1,0.4-1,1s0.4,1,1,1h12c0.6,0,1-0.4,1-1S38.6,54,38,54z"/></g></svg>