<?xml version="1.0" ?><!DOCTYPE svg  PUBLIC '-//W3C//DTD SVG 1.1//EN'  'http://www.w3.org/Graphics/SVG/1.1/DTD/svg11.dtd'><svg enable-background="new 0 0 64 64" height="64px" id="Layer_1" version="1.1" viewBox="0 0 64 64" width="64px" xml:space="preserve" xmlns="http://www.w3.org/2000/svg" xmlns:xlink="http://www.w3.org/1999/xlink"><g><path d="M54.4,12.3c-1.8-3.9-4.9-6.9-9-8.4c-1.8-0.7-3.8-1.1-5.7-1.1c-6.6,0-12.7,4.2-15,10.4c-0.3,0.7-2.6,2.7-4.4,4.3   c-4.7,4-8,7-8.2,9.5c-0.2,2.3,2.3,4.5,4.9,6.8c1.8,1.7,3.9,3.5,4.1,4.7l0.2,1.3c0.7,5.4,1.3,11,5,12.4c0.4,0.2,0.9,0.2,1.4,0.2   c3.4,0,8.2-3.7,11.7-6.4c1.2-0.9,3.7-1.1,6.2-1.2c3.3-0.2,6.8-0.3,8.4-2.6c1.4-1.9,1.3-6.2,0.9-12c-0.2-2.4-0.4-5.1-0.1-5.7   C56.3,20.5,56.1,16.2,54.4,12.3z M52.9,23.8c-0.4,1-0.3,3.1,0,6.6c0.3,3.7,0.6,9.2-0.5,10.7c-1.1,1.5-4.1,1.6-6.9,1.8   c-2.9,0.1-5.6,0.3-7.3,1.6c-2.9,2.2-7.7,6-10.5,6c-0.3,0-0.5,0-0.7-0.1c-2.6-1-3.2-6.2-3.8-10.8L23,38.2c-0.2-1.9-2.4-3.9-4.7-6   c-1.9-1.7-4.4-3.9-4.3-5.2c0.2-1.9,4.6-5.6,7.5-8.1c2.9-2.5,4.6-3.9,5-5.1c2.1-5.4,7.4-9.1,13.2-9.1c1.7,0,3.4,0.3,5,0.9   c3.5,1.3,6.3,4,7.8,7.4C54.1,16.5,54.2,20.3,52.9,23.8z"/><path d="M31.5,23.5c1.8,0,4-1.3,5.7-3.4c1.6-2,2.4-4.2,2.2-5.9c-0.1-0.9-0.5-1.6-1.1-2.1c-0.5-0.4-1.2-0.6-1.9-0.6   c-1.8,0-4,1.3-5.7,3.4c-2.5,3.1-2.9,6.5-1.1,8C30.1,23.2,30.8,23.5,31.5,23.5z M32.3,16.1c1.5-1.9,3.2-2.7,4.1-2.7   c0.3,0,0.5,0.1,0.6,0.2c0.2,0.2,0.3,0.4,0.4,0.8c0.1,1.2-0.6,2.9-1.8,4.4c-1.9,2.4-4.1,3.1-4.8,2.5C30.2,20.7,30.4,18.4,32.3,16.1z   "/><path d="M44,14.3c-2.3-0.2-4.2,2.8-4.3,6.8c-0.1,4,1.6,7.1,3.8,7.3c0.1,0,0.1,0,0.2,0c2.2,0,4-2.9,4.1-6.8   C47.9,17.6,46.3,14.5,44,14.3z M43.7,26.4L43.7,26.4c-0.9-0.1-2.1-2.2-2.1-5.3c0.1-3,1.3-4.8,2.1-4.8h0c0.9,0.1,2.1,2.2,2,5.3   C45.8,24.6,44.6,26.4,43.7,26.4z"/><path d="M34,25.9l-0.2,0c-3.4,0.1-6.1,1.8-6.1,4c0,2.2,2.6,3.8,6.1,3.8l0.2,0c2.1,0,4.1-0.7,5.1-1.9c0.6-0.6,0.9-1.4,0.9-2.2   C40,27.6,37.4,25.9,34,25.9z M37.7,30.5c-0.7,0.7-2.2,1.2-3.7,1.3l-0.1,0c-2.3,0-4-1-4.1-1.9c0-0.9,1.7-2,4.1-2l0.1,0   c2.3,0,4,1,4,1.9C38.1,30,38,30.3,37.7,30.5z"/><path d="M18.8,47l-8.2,8.7c-0.4,0.4-0.4,1,0,1.4c0.2,0.2,0.4,0.3,0.7,0.3c0.3,0,0.5-0.1,0.7-0.3l8.2-8.7c0.4-0.4,0.4-1,0-1.4   C19.8,46.6,19.2,46.6,18.8,47z"/><path d="M44.9,48.6L34.3,60.1c-0.4,0.4-0.3,1,0.1,1.4c0.2,0.2,0.4,0.3,0.7,0.3c0.3,0,0.5-0.1,0.7-0.3l10.6-11.5   c0.4-0.4,0.3-1-0.1-1.4S45.2,48.2,44.9,48.6z"/><path d="M31,53.9l-5.1,5.7c-0.4,0.4-0.3,1,0.1,1.4c0.2,0.2,0.4,0.3,0.7,0.3c0.3,0,0.6-0.1,0.7-0.3l5.1-5.7c0.4-0.4,0.3-1-0.1-1.4   C32,53.5,31.4,53.5,31,53.9z"/><path d="M16.9,37.1c-0.4-0.4-1-0.4-1.4-0.1l-7.4,6.8c-0.4,0.4-0.4,1-0.1,1.4c0.2,0.2,0.5,0.3,0.7,0.3c0.2,0,0.5-0.1,0.7-0.3   l7.4-6.8C17.3,38.1,17.3,37.5,16.9,37.1z"/></g></svg>