<?xml version="1.0" ?><!DOCTYPE svg  PUBLIC '-//W3C//DTD SVG 1.1//EN'  'http://www.w3.org/Graphics/SVG/1.1/DTD/svg11.dtd'><svg enable-background="new 0 0 512 512" height="512px" id="Layer_1" version="1.1" viewBox="0 0 512 512" width="512px" xml:space="preserve" xmlns="http://www.w3.org/2000/svg" xmlns:xlink="http://www.w3.org/1999/xlink"><g><path d="M41.166,316.89H102.5c4.971,0,9-4.029,9-9v-26.333h16V433c0,11.579,9.421,21,21,21h215c11.579,0,21-9.421,21-21V281.557h16   v26.333c0,4.971,4.029,9,9,9h61.334c4.971,0,9-4.029,9-9v-118c0-4.971-4.029-9-9-9H409.5c-4.971,0-9,4.029-9,9v26.334h-16V79   c0-11.579-9.421-21-21-21h-215c-11.579,0-21,9.421-21,21v124.733c0,0.007,0,0.014,0,0.021v12.47h-16V189.89c0-4.971-4.029-9-9-9   H41.166c-4.971,0-9,4.029-9,9v118C32.166,312.86,36.195,316.89,41.166,316.89z M366.5,433c0,1.654-1.346,3-3,3h-215   c-1.654,0-3-1.346-3-3V272.557v-47.333v-18.801l30.674-46.007l32.147,48.215c0.012,0.017,0.023,0.034,0.035,0.052l0.006,0.009   c0.004,0.007,0.01,0.012,0.014,0.019c0.188,0.279,0.395,0.546,0.614,0.805c0.069,0.082,0.143,0.16,0.215,0.239   c0.155,0.171,0.318,0.336,0.489,0.496c0.098,0.092,0.193,0.183,0.294,0.269c0.157,0.135,0.322,0.261,0.49,0.386   c0.11,0.083,0.219,0.171,0.333,0.247c0.017,0.012,0.03,0.024,0.047,0.035c0.053,0.035,0.109,0.058,0.162,0.091   c0.283,0.181,0.574,0.347,0.875,0.494c0.133,0.065,0.267,0.122,0.401,0.18c0.237,0.102,0.477,0.193,0.72,0.274   c0.158,0.053,0.315,0.104,0.475,0.146c0.24,0.065,0.482,0.115,0.727,0.16c0.151,0.028,0.301,0.063,0.453,0.083   c0.36,0.048,0.725,0.074,1.09,0.078c0.027,0,0.055,0.006,0.082,0.006c0.003,0,0.005-0.001,0.005-0.001l0.011,0.001   c0.027,0,0.055-0.006,0.082-0.006c0.365-0.004,0.729-0.03,1.092-0.079c0.149-0.02,0.298-0.054,0.447-0.081   c0.246-0.046,0.491-0.096,0.733-0.161c0.157-0.043,0.312-0.094,0.468-0.146c0.246-0.081,0.487-0.174,0.726-0.276   c0.134-0.058,0.268-0.114,0.399-0.18c0.295-0.144,0.58-0.307,0.859-0.483c0.059-0.037,0.121-0.062,0.179-0.101   c0.019-0.012,0.034-0.026,0.053-0.039c0.104-0.07,0.203-0.151,0.306-0.227c0.178-0.133,0.354-0.267,0.52-0.409   c0.094-0.081,0.184-0.166,0.274-0.251c0.179-0.167,0.35-0.34,0.513-0.52c0.065-0.073,0.133-0.144,0.196-0.219   c0.246-0.29,0.478-0.59,0.683-0.904l32.137-48.202l32.142,48.207c0.177,0.271,0.37,0.533,0.578,0.786   c0.069,0.085,0.147,0.162,0.22,0.245c0.121,0.136,0.239,0.274,0.369,0.404c0.151,0.152,0.313,0.292,0.473,0.432   c0.061,0.052,0.115,0.108,0.178,0.159c0.703,0.579,1.482,1.043,2.309,1.379c0.207,0.085,0.417,0.154,0.628,0.223   c0.063,0.021,0.122,0.047,0.185,0.065c0.226,0.067,0.453,0.12,0.682,0.17c0.055,0.012,0.107,0.028,0.162,0.039   c0.206,0.041,0.414,0.067,0.621,0.094c0.082,0.011,0.164,0.026,0.246,0.034c0.17,0.018,0.34,0.021,0.51,0.028   c0.125,0.005,0.248,0.016,0.373,0.016s0.249-0.011,0.373-0.016c0.17-0.007,0.341-0.011,0.511-0.028   c0.081-0.008,0.161-0.023,0.242-0.033c0.209-0.026,0.418-0.054,0.626-0.095c0.05-0.01,0.099-0.025,0.148-0.036   c0.232-0.05,0.465-0.104,0.695-0.174c0.047-0.014,0.093-0.033,0.14-0.049c0.227-0.072,0.452-0.147,0.675-0.239   c0.551-0.225,1.081-0.507,1.582-0.841h0.001c0.002-0.001,0.003-0.003,0.005-0.004c0.246-0.164,0.484-0.341,0.714-0.529   c0.079-0.065,0.15-0.137,0.227-0.203c0.144-0.127,0.288-0.252,0.425-0.389c0.141-0.139,0.268-0.287,0.396-0.434   c0.064-0.073,0.133-0.142,0.195-0.217c0.208-0.254,0.401-0.517,0.579-0.788l32.142-48.207l31.626,47.435v17.373v47.333V433z    M418.5,198.89h43.334v100H418.5v-26.333v-47.333V198.89z M400.5,234.224v29.333h-16v-29.333H400.5z M148.5,76h215   c1.654,0,3,1.346,3,3v96.403L342.362,139.2c-1.669-2.504-4.479-4.008-7.488-4.008s-5.819,1.504-7.488,4.008l-32.187,48.274   L263.013,139.2c-1.669-2.504-4.479-4.008-7.488-4.008s-5.819,1.504-7.488,4.008l-32.186,48.274l-32.188-48.275   c-1.67-2.503-4.479-4.007-7.488-4.007s-5.819,1.504-7.488,4.008L145.5,173.976V79C145.5,77.346,146.846,76,148.5,76z    M127.5,234.224v29.333h-16v-29.333H127.5z M50.166,198.89H93.5v26.334v47.333v26.333H50.166V198.89z"/><path d="M247.237,274.89c0-23.159-18.841-42-42-42s-42,18.841-42,42s18.841,42,42,42S247.237,298.049,247.237,274.89z    M181.237,274.89c0-13.233,10.767-24,24-24s24,10.767,24,24s-10.767,24-24,24S181.237,288.123,181.237,274.89z"/><path d="M306.763,232.89c-23.159,0-42,18.841-42,42s18.841,42,42,42s42-18.841,42-42S329.922,232.89,306.763,232.89z    M306.763,298.89c-13.233,0-24-10.767-24-24s10.767-24,24-24s24,10.767,24,24S319.996,298.89,306.763,298.89z"/><path d="M325.832,376.89h-18.167v-9.25c0-4.971-4.029-9-9-9s-9,4.029-9,9v9.25h-24.5v-9.25c0-4.971-4.029-9-9-9s-9,4.029-9,9v9.25   h-24.5v-9.25c0-4.971-4.029-9-9-9s-9,4.029-9,9v9.25h-18.166c-4.971,0-9,4.029-9,9s4.029,9,9,9h18.166v9.25c0,4.971,4.029,9,9,9   s9-4.029,9-9v-9.25h24.5v9.25c0,4.971,4.029,9,9,9s9-4.029,9-9v-9.25h24.5v9.25c0,4.971,4.029,9,9,9s9-4.029,9-9v-9.25h18.167   c4.971,0,9-4.029,9-9S330.803,376.89,325.832,376.89z"/></g></svg>