<?xml version="1.0" ?><!DOCTYPE svg  PUBLIC '-//W3C//DTD SVG 1.1//EN'  'http://www.w3.org/Graphics/SVG/1.1/DTD/svg11.dtd'><svg enable-background="new 0 0 64 64" height="64px" id="Layer_1" version="1.1" viewBox="0 0 64 64" width="64px" xml:space="preserve" xmlns="http://www.w3.org/2000/svg" xmlns:xlink="http://www.w3.org/1999/xlink"><g><path d="M58.7,20.8l-7-1.6c-0.2,0-0.4,0-0.6,0.1L42,23.4l7-6.9c0.2-0.2,0.3-0.4,0.3-0.7l0.1-11.2c0-0.6-0.4-1-1-1c0,0,0,0,0,0   c-0.5,0-1,0.4-1,1l-0.1,10.7l-9.4,9.2c1-1.6,1.7-3.6,1.7-5.9c0-2.7-0.9-5.1-2.3-6.8c0.3-0.1,0.6-0.3,0.9-0.5   c1.5-1.2,2.4-3.5,2.4-6.9c0-0.6-0.4-1-1-1c0,0,0,0,0,0c-0.5,0-1,0.4-1,1c0,3.4-0.9,4.7-1.6,5.3c-0.7,0.6-1.5,0.4-1.5,0.4   c0,0-0.1,0-0.1,0c-1-0.6-2.2-1-3.5-1c-1.1,0-2.2,0.3-3.2,0.8c-0.1,0-0.2,0-0.3,0c0,0-0.8,0.2-1.5-0.3c-0.7-0.5-1.5-1.8-1.5-5.2   c0-0.6-0.5-1-1-1c-0.6,0-1,0.5-1,1c0,3.4,0.8,5.7,2.4,6.8c0.3,0.2,0.5,0.3,0.8,0.4C25,13.5,24,15.9,24,18.7c0,1.2,0.2,2.3,0.5,3.4   l-6.9-6.7L17.6,4.6c0-0.5-0.5-1-1-1c0,0,0,0,0,0c-0.6,0-1,0.5-1,1l0.1,11.2c0,0.3,0.1,0.5,0.3,0.7l7,6.9l-9.1-4.1   c-0.2-0.1-0.4-0.1-0.6-0.1l-7,1.6c-0.5,0.1-0.9,0.7-0.7,1.2s0.7,0.9,1.2,0.7l6.7-1.5l11.2,5.1l-10.9-0.1c-0.2,0-0.5,0.1-0.6,0.2   l-6.7,5.5c-0.4,0.3-0.5,1-0.1,1.4c0.2,0.2,0.5,0.4,0.8,0.4c0.2,0,0.4-0.1,0.6-0.2l6.4-5.3l11.3,0.1l-11.8,6.4   c-0.3,0.2-0.5,0.5-0.5,0.9V56c0,0.6,0.4,1,1,1s1-0.4,1-1V36.2l5.6-3.1c-1.9,3-3,6.7-3,10.7c0,9.6,6.3,17.5,14.1,17.5   c7.8,0,14.1-7.8,14.1-17.5c0-4.2-1.2-8.1-3.3-11.2l7.3,3.6V56c0,0.6,0.4,1,1,1s1-0.4,1-1V35.6c0-0.4-0.2-0.7-0.6-0.9l-13-6.4   L51,28.2l6.4,5.3c0.2,0.2,0.4,0.2,0.6,0.2c0.3,0,0.6-0.1,0.8-0.4c0.3-0.4,0.3-1.1-0.1-1.4L52,26.4c-0.2-0.1-0.4-0.2-0.6-0.2   l-10.9,0.1l11.2-5.1l6.7,1.5c0.5,0.1,1.1-0.2,1.2-0.7C59.6,21.4,59.3,20.9,58.7,20.8z M35.6,27C35.6,27,35.6,27,35.6,27   C35.6,27,35.6,27,35.6,27C35.6,27,35.6,27,35.6,27z M31.8,11.2c3.2,0,5.8,3.4,5.8,7.5c0,4.1-2.6,7.5-5.8,7.5   c-3.2,0-5.8-3.4-5.8-7.5C26,14.5,28.6,11.2,31.8,11.2z M43.9,43.8c0,8.5-5.4,15.5-12.1,15.5c-6.7,0-12.1-6.9-12.1-15.5   c0-6,2.7-11.2,6.6-13.8l1.4-0.8c1.3-0.6,2.6-0.9,4.1-0.9c1.2,0,2.4,0.2,3.5,0.7c0,0,0,0,0,0l1.7,0.8C41.1,32.3,43.9,37.6,43.9,43.8   z"/><path d="M23,41c0,0.6,0.4,1,1,1h16c0.6,0,1-0.4,1-1s-0.4-1-1-1H24C23.4,40,23,40.4,23,41z"/><path d="M38,46H26c-0.6,0-1,0.4-1,1s0.4,1,1,1h12c0.6,0,1-0.4,1-1S38.6,46,38,46z"/></g></svg>