<?xml version="1.0" ?><svg id="Layer_1" style="enable-background:new 0 0 24 24;" version="1.1" viewBox="0 0 24 24" xml:space="preserve" xmlns="http://www.w3.org/2000/svg" xmlns:xlink="http://www.w3.org/1999/xlink"><path d="M12.001,1l-0.283,0.004c-0.723,0.02-1.471,0.132-2.226,0.332  C9.279,1.394,9.128,1.584,9.121,1.805c-0.007,0.221,0.133,0.42,0.342,0.49l0.695,0.231c0.246,0.082,0.39,0.344,0.326,0.596  l-0.288,1.153c-0.061,0.242,0.067,0.493,0.3,0.585l1.688,0.675c0.257,0.103,0.382,0.395,0.28,0.651  c-0.101,0.249-0.398,0.378-0.65,0.278l-2.5-1C9.083,5.372,8.954,5.12,9.015,4.878l0.275-1.101c0.063-0.253-0.079-0.513-0.327-0.596  l-1.893-0.63c-0.146-0.048-0.304-0.027-0.43,0.055C3.795,4.45,2.06,7.521,2.002,10.818C1.944,14.026,3.434,17.061,6,18.99V21  c0,1.103,0.897,2,2,2c0.276,0,0.5-0.224,0.5-0.5v-2C8.5,20.224,8.724,20,9,20c0.275,0,0.5,0.224,0.5,0.5v2  c0,0.276,0.224,0.5,0.5,0.5h1c0.276,0,0.5-0.224,0.5-0.5v-2c0-0.276,0.225-0.5,0.5-0.5c0.275,0,0.5,0.224,0.5,0.5v2  c0,0.276,0.224,0.5,0.5,0.5h1c0.276,0,0.5-0.224,0.5-0.5v-2c0-0.276,0.225-0.5,0.5-0.5c0.275,0,0.5,0.224,0.5,0.5v2  c0,0.276,0.224,0.5,0.5,0.5c1.102,0,2-0.897,2-2v-2.01c2.51-1.887,4-4.855,4-7.99C22,5.486,17.514,1,12.001,1z M8.479,13.018  c-0.626,0-1.234-0.323-1.715-0.91c-0.622-0.76-0.941-1.866-0.775-2.689C6.171,8.517,6.754,8,7.588,8  c1.371,0,3.245,1.501,3.386,2.443c0.097,0.646-0.075,1.262-0.481,1.734C10.031,12.711,9.298,13.018,8.479,13.018z M11.5,16.5  c0,0.869-0.421,1.5-1,1.5c-0.579,0-1-0.631-1-1.5c0-0.712,0.885-1.606,1.156-1.863c0.145-0.138,0.359-0.175,0.541-0.097  C11.381,14.62,11.5,14.8,11.5,15V16.5z M13.5,18c-0.579,0-1-0.631-1-1.5V15c0-0.2,0.119-0.38,0.303-0.46  c0.183-0.08,0.396-0.041,0.541,0.097c0.271,0.257,1.156,1.151,1.156,1.863C14.5,17.369,14.079,18,13.5,18z M17.235,12.09  C16.755,12.677,16.146,13,15.52,13c-0.818,0-1.552-0.306-2.013-0.84c-0.406-0.472-0.578-1.088-0.481-1.733  c0.141-0.943,2.015-2.444,3.386-2.444c0.834,0,1.417,0.517,1.599,1.419C18.177,10.224,17.857,11.33,17.235,12.09z" id="XMLID_105_" style="fill:#303C42;"/><g/><g/><g/><g/><g/><g/><g/><g/><g/><g/><g/><g/><g/><g/><g/></svg>