<?xml version="1.0" ?><svg id="Layer_1_1_" style="enable-background:new 0 0 40 49;" version="1.1" viewBox="0 0 40 49" xml:space="preserve" xmlns="http://www.w3.org/2000/svg" xmlns:xlink="http://www.w3.org/1999/xlink"><path d="M39,9c-0.553,0-1,0.447-1,1v2h-5.586L20.707,0.293c-0.391-0.391-1.023-0.391-1.414,0L7.586,12H2v-2c0-0.553-0.447-1-1-1  s-1,0.447-1,1v6c0,0.553,0.447,1,1,1s1-0.447,1-1v-2h5.586l11,11L17,26.586l-4.293-4.293c-0.391-0.391-1.023-0.391-1.414,0  s-0.391,1.023,0,1.414L15.586,28L13,30.586l-2.293-2.293c-0.391-0.391-1.023-0.391-1.414,0s-0.391,1.023,0,1.414l3,3L15.586,36  L14,37.586l-3.293-3.293c-0.391-0.391-1.023-0.391-1.414,0s-0.391,1.023,0,1.414L12.586,39L8,43.586l-1.293-1.293  c-0.391-0.391-1.023-0.391-1.414,0s-0.391,1.023,0,1.414l2,2C7.488,45.902,7.744,46,8,46s0.512-0.098,0.707-0.293L14,40.414  L15.586,42l-5.293,5.293c-0.391,0.391-0.391,1.023,0,1.414C10.488,48.902,10.744,49,11,49s0.512-0.098,0.707-0.293L17.414,43h5.172  l5.707,5.707C28.488,48.902,28.744,49,29,49s0.512-0.098,0.707-0.293c0.391-0.391,0.391-1.023,0-1.414L24.414,42L26,40.414  l5.293,5.293C31.488,45.902,31.744,46,32,46s0.512-0.098,0.707-0.293l2-2c0.391-0.391,0.391-1.023,0-1.414s-1.023-0.391-1.414,0  L32,43.586L27.414,39l3.293-3.293c0.391-0.391,0.391-1.023,0-1.414s-1.023-0.391-1.414,0L26,37.586L24.414,36l3.293-3.293l3-3  c0.391-0.391,0.391-1.023,0-1.414s-1.023-0.391-1.414,0L27,30.586L24.414,28l4.293-4.293c0.391-0.391,0.391-1.023,0-1.414  s-1.023-0.391-1.414,0L23,26.586L21.414,25l11-11H38v2c0,0.553,0.447,1,1,1s1-0.447,1-1v-6C40,9.447,39.553,9,39,9z M20,2.414  l5.652,5.652C23.956,7.443,22.043,7,20,7s-3.956,0.443-5.652,1.066L20,2.414z M20,9c4.636,0,8.695,2.671,10.428,4  c-1.732,1.329-5.792,4-10.428,4s-8.695-2.671-10.428-4C11.305,11.671,15.364,9,20,9z M24.586,39l-2,2h-5.172l-2-2l2-2h5.172  L24.586,39z M25.586,32l-3,3h-5.172l-3-3L20,26.414L25.586,32z M14.348,17.934C16.044,18.557,17.957,19,20,19  s3.956-0.443,5.652-1.066L20,23.586L14.348,17.934z"/><circle cx="20" cy="13" r="2"/></svg>