<?xml version="1.0" ?><!DOCTYPE svg  PUBLIC '-//W3C//DTD SVG 1.1//EN'  'http://www.w3.org/Graphics/SVG/1.1/DTD/svg11.dtd'><svg enable-background="new 0 0 64 64" height="64px" id="Layer_1" version="1.1" viewBox="0 0 64 64" width="64px" xml:space="preserve" xmlns="http://www.w3.org/2000/svg" xmlns:xlink="http://www.w3.org/1999/xlink"><g><path d="M57.3,2.4C57.1,2.1,56.8,2,56.5,2h-48C8.2,2,7.9,2.1,7.7,2.4C7.5,2.6,7.5,2.9,7.5,3.2L12.9,32H10v-4c0-0.6-0.4-1-1-1   s-1,0.4-1,1v10c0,0.6,0.4,1,1,1s1-0.4,1-1v-4h3.2l3.2,17.1l-2.7,3c-0.3,0.3-0.3,0.7-0.2,1.1l3,6.2c0.2,0.3,0.5,0.6,0.9,0.6h30   c0.4,0,0.7-0.2,0.9-0.6l3-6.2c0.2-0.4,0.1-0.8-0.2-1.1l-2.7-3L51.8,34H55v4c0,0.6,0.4,1,1,1s1-0.4,1-1V28c0-0.6-0.4-1-1-1   s-1,0.4-1,1v4h-2.9l5.4-28.8C57.5,2.9,57.5,2.6,57.3,2.4z M46.5,51.2c-0.1,0.3,0,0.6,0.2,0.8l2.6,2.9L46.9,60H18.1l-2.4-5.1   l2.6-2.9c0.2-0.2,0.3-0.5,0.2-0.8L9.7,4H16v4c0,0.6,0.4,1,1,1s1-0.4,1-1V4h4v4c0,0.6,0.4,1,1,1s1-0.4,1-1V4h4v4c0,0.6,0.4,1,1,1   s1-0.4,1-1V4h4v4c0,0.6,0.4,1,1,1s1-0.4,1-1V4h4v4c0,0.6,0.4,1,1,1s1-0.4,1-1V4h4v4c0,0.6,0.4,1,1,1s1-0.4,1-1V4h7.3L46.5,51.2z"/><path d="M30.7,36.5c0.4,0,0.8-0.3,0.9-0.7c0.2-0.5-0.1-1.1-0.6-1.3l-11.3-3.9c-0.5-0.2-1.1,0.1-1.3,0.6c-0.2,0.5,0.1,1.1,0.6,1.3   l11.3,3.9C30.5,36.4,30.6,36.5,30.7,36.5z"/><path d="M45.2,30.2l-11.1,4.3c-0.5,0.2-0.8,0.8-0.6,1.3c0.2,0.4,0.5,0.6,0.9,0.6c0.1,0,0.2,0,0.4-0.1l11.1-4.3   c0.5-0.2,0.8-0.8,0.6-1.3C46.3,30.3,45.7,30,45.2,30.2z"/><path d="M46,18h-3c0-0.6-0.4-1-1-1s-1,0.4-1,1h-4c0-0.6-0.4-1-1-1s-1,0.4-1,1h-4c0-0.6-0.4-1-1-1s-1,0.4-1,1h-4c0-0.6-0.4-1-1-1   s-1,0.4-1,1h-3c-0.6,0-1,0.4-1,1s0.4,1,1,1h3c0,0.6,0.4,1,1,1s1-0.4,1-1h4c0,0.6,0.4,1,1,1s1-0.4,1-1h4c0,0.6,0.4,1,1,1s1-0.4,1-1   h4c0,0.6,0.4,1,1,1s1-0.4,1-1h3c0.6,0,1-0.4,1-1S46.6,18,46,18z"/><path d="M39,50H26c-0.6,0-1,0.4-1,1s0.4,1,1,1h13c0.6,0,1-0.4,1-1S39.6,50,39,50z"/><path d="M27,40c0.6,0,1-0.4,1-1s-0.4-1-1-1h-2c-0.6,0-1,0.4-1,1s0.4,1,1,1H27z"/><path d="M40,38h-2c-0.6,0-1,0.4-1,1s0.4,1,1,1h2c0.6,0,1-0.4,1-1S40.6,38,40,38z"/></g></svg>