<?xml version="1.0" ?><svg id="Layer_1" style="enable-background:new 0 0 24 24;" version="1.1" viewBox="0 0 24 24" xml:space="preserve" xmlns="http://www.w3.org/2000/svg" xmlns:xlink="http://www.w3.org/1999/xlink"><g id="XMLID_1419_"><path d="   M13.521,10.5c0.146-0.979,3.521-3.375,4-1c0.23,1.143-0.708,3-2,3S13.352,11.635,13.521,10.5z" id="XMLID_1420_" style="fill:none;stroke:#303C42;stroke-linecap:round;stroke-linejoin:round;stroke-miterlimit:10;"/><path d="   M10.479,10.518c-0.146-0.979-3.521-3.375-4-1c-0.23,1.143,0.708,3,2,3S10.648,11.653,10.479,10.518z" id="XMLID_1421_" style="fill:none;stroke:#303C42;stroke-linecap:round;stroke-linejoin:round;stroke-miterlimit:10;"/><path d="   M14,16.5c0,0.552-0.224,1-0.5,1s-0.5-0.448-0.5-1s0-1.5,0-1.5S14,15.948,14,16.5z" id="XMLID_1422_" style="fill:none;stroke:#303C42;stroke-linecap:round;stroke-linejoin:round;stroke-miterlimit:10;"/><path d="   M10,16.5c0,0.552,0.224,1,0.5,1s0.5-0.448,0.5-1s0-1.5,0-1.5S10,15.948,10,16.5z" id="XMLID_1423_" style="fill:none;stroke:#303C42;stroke-linecap:round;stroke-linejoin:round;stroke-miterlimit:10;"/><polyline id="XMLID_1424_" points="   7.809,2.5 10,3 9.5,5 12,6  " style="fill:none;stroke:#303C42;stroke-linecap:round;stroke-linejoin:round;stroke-miterlimit:10;"/><line id="XMLID_1425_" style="fill:none;stroke:#303C42;stroke-linecap:round;stroke-linejoin:round;stroke-miterlimit:10;" x1="9" x2="9" y1="20.5" y2="22.5"/><line id="XMLID_1426_" style="fill:none;stroke:#303C42;stroke-linecap:round;stroke-linejoin:round;stroke-miterlimit:10;" x1="15" x2="15" y1="20.5" y2="22.5"/><path d="   M21.5,11c0-5.336-4.399-9.645-9.769-9.496c-4.993,0.138-9.14,4.329-9.23,9.323c-0.058,3.266,1.537,6.156,3.998,7.91V21   c0,0.828,0.672,1.5,1.5,1.5h8c0.828,0,1.5-0.672,1.5-1.5v-2.263C19.918,17.014,21.5,14.195,21.5,11z" id="XMLID_1427_" style="fill:none;stroke:#303C42;stroke-linecap:round;stroke-linejoin:round;stroke-miterlimit:10;"/><line id="XMLID_1428_" style="fill:none;stroke:#303C42;stroke-linecap:round;stroke-linejoin:round;stroke-miterlimit:10;" x1="12" x2="12" y1="20.5" y2="22.5"/></g></svg>