<?xml version="1.0" ?><svg height="60px" version="1.1" viewBox="0 0 60 60" width="60px" xmlns="http://www.w3.org/2000/svg" xmlns:sketch="http://www.bohemiancoding.com/sketch/ns" xmlns:xlink="http://www.w3.org/1999/xlink"><title/><desc/><defs/><g fill="none" fill-rule="evenodd" id="Page-1" stroke="none" stroke-width="1"><g fill="#0A0B09" id="Fill-25-+-Fill-26-+-Fill-27"><path d="M59,13 L53,13 C52.447,13 52,13.447 52,14 L52,15 L50,15 L50,13 C50,5.832 44.168,0 37,0 L23,0 C15.832,0 10,5.832 10,13 L10,15 L8,15 L8,14 C8,13.447 7.552,13 7,13 L1,13 C0.448,13 0,13.447 0,14 L0,24 C0,24.553 0.448,25 1,25 L7,25 C7.552,25 8,24.553 8,24 L8,23 L10,23 L10,47 C10,54.168 15.832,60 23,60 L37,60 C44.168,60 50,54.168 50,47 L50,23 L52,23 L52,24 C52,24.553 52.447,25 53,25 L59,25 C59.553,25 60,24.553 60,24 L60,14 C60,13.447 59.553,13 59,13 L59,13 Z M2,15 L6,15 L6,23 L2,23 L2,15 Z M48,13 L48,17.945 C46.642,17.843 45.355,17.538 44.155,17.049 L44.735,16.044 C45.012,15.565 44.848,14.954 44.369,14.678 C43.892,14.401 43.278,14.565 43.003,15.044 L42.362,16.155 C41.289,15.502 40.315,14.683 39.445,13.728 L40.162,13.157 C40.594,12.813 40.665,12.184 40.321,11.752 C39.977,11.319 39.348,11.25 38.915,11.593 L38.194,12.167 C37.319,10.898 36.598,9.457 36.068,7.868 L37.728,6.91 C38.206,6.634 38.37,6.023 38.094,5.544 C37.817,5.065 37.206,4.9 36.728,5.178 L35.527,5.871 C35.256,4.645 35.094,3.35 35.037,2 L37,2 C43.065,2 48,6.935 48,13 L48,13 Z M23,2 L25,2 L25,8 L24,8 C23.448,8 23,8.447 23,9 C23,9.553 23.448,10 24,10 L25,10 L25,13 L24,13 C23.448,13 23,13.447 23,14 C23,14.553 23.448,15 24,15 L25,15 L25,18 L24,18 C23.448,18 23,18.447 23,19 C23,19.553 23.448,20 24,20 L24.624,20 C24.124,21.493 23.189,23.062 22.209,24.537 C21.54,24.205 20.797,24 20,24 C17.243,24 15,26.243 15,29 C15,29.269 15.038,29.528 15.079,29.786 C14.173,29.961 13.158,29.99 12,29.996 L12,13 C12,6.935 16.935,2 23,2 L23,2 Z M23,29 C23,30.654 21.654,32 20,32 C18.346,32 17,30.654 17,29 C17,27.346 18.346,26 20,26 C21.654,26 23,27.346 23,29 L23,29 Z M8,17 L10,17 L10,21 L8,21 L8,17 Z M37,58 L23,58 C16.935,58 12,53.065 12,47 L12,31.997 C13.367,31.993 14.61,31.945 15.789,31.672 C16.677,33.067 18.228,34 20,34 C22.757,34 25,31.757 25,29 C25,27.765 24.533,26.647 23.787,25.773 C25.042,23.896 26.201,21.949 26.715,20 L29,20 C29.552,20 30,19.553 30,19 C30,18.447 29.552,18 29,18 L27,18 L27,15 L29,15 C29.552,15 30,14.553 30,14 C30,13.447 29.552,13 29,13 L27,13 L27,10 L29,10 C29.552,10 30,9.553 30,9 C30,8.447 29.552,8 29,8 L27,8 L27,2 L33.04,2 C33.108,3.715 33.336,5.361 33.733,6.906 L32.359,7.699 C31.881,7.976 31.717,8.587 31.993,9.065 C32.179,9.386 32.515,9.565 32.86,9.565 C33.03,9.565 33.202,9.523 33.359,9.432 L34.345,8.863 C34.944,10.515 35.728,12.031 36.676,13.377 L34.97,14.735 C34.538,15.079 34.467,15.709 34.811,16.141 C35.008,16.389 35.3,16.518 35.594,16.518 C35.812,16.518 36.032,16.446 36.216,16.3 L37.928,14.937 C38.955,16.083 40.11,17.069 41.384,17.851 L40.482,19.413 C40.207,19.892 40.371,20.503 40.849,20.779 C41.006,20.87 41.178,20.913 41.348,20.913 C41.693,20.913 42.029,20.733 42.215,20.413 L43.164,18.768 C44.666,19.427 46.288,19.829 48,19.944 L48,47 C48,53.065 43.065,58 37,58 L37,58 Z M50,17 L52,17 L52,21 L50,21 L50,17 Z M54,15 L58,15 L58,23 L54,23 L54,15 Z" id="Fill-25"/><path d="M43,38 L17,38 C16.448,38 16,38.447 16,39 L16,44 C16,50.477 20.112,55 26,55 L34,55 C39.888,55 44,50.477 44,44 L44,39 C44,38.447 43.553,38 43,38 L43,38 Z M34,40 L38,40 L38,42 L34,42 L34,40 Z M18,40 L20,40 L20,42 L18,42 L18,40 Z M26,53 L25.966,52.998 C25.994,51.861 26.118,50.624 26.668,50.284 C27.142,49.991 28.192,50.214 29.553,50.894 C29.834,51.035 30.166,51.035 30.447,50.894 C31.809,50.214 32.861,49.991 33.331,50.284 C33.882,50.624 34.006,51.861 34.034,52.998 L34,53 L26,53 L26,53 Z M42,44 C42,48.498 39.625,51.835 36.027,52.744 C35.973,51.106 35.712,49.403 34.383,48.583 C33.327,47.929 31.89,48.029 30,48.892 C28.111,48.029 26.673,47.929 25.617,48.583 C24.288,49.403 24.026,51.106 23.973,52.744 C20.375,51.835 18,48.498 18,44 L21,44 C21.552,44 22,43.553 22,43 L22,40 L32,40 L32,43 C32,43.553 32.448,44 33,44 L39,44 C39.552,44 40,43.553 40,43 L40,40 L42,40 L42,44 L42,44 Z" id="Fill-26"/><path d="M40,24 C37.243,24 35,26.243 35,29 C35,31.757 37.243,34 40,34 C42.757,34 45,31.757 45,29 C45,26.243 42.757,24 40,24 L40,24 Z M40,32 C38.346,32 37,30.654 37,29 C37,27.346 38.346,26 40,26 C41.654,26 43,27.346 43,29 C43,30.654 41.654,32 40,32 L40,32 Z" id="Fill-27"/></g></g></svg>