<?xml version="1.0" ?><!DOCTYPE svg  PUBLIC '-//W3C//DTD SVG 1.1//EN'  'http://www.w3.org/Graphics/SVG/1.1/DTD/svg11.dtd'><svg enable-background="new 0 0 512 512" height="512px" id="Layer_1" version="1.1" viewBox="0 0 512 512" width="512px" xml:space="preserve" xmlns="http://www.w3.org/2000/svg" xmlns:xlink="http://www.w3.org/1999/xlink"><g><path d="M311.993,174.053c-2.941-0.573-5.972,0.352-8.089,2.469l-41,41c-1.967,1.967-2.913,4.732-2.564,7.491   c1.365,10.818,9.721,31.278,31.565,31.278c4.381,0,9.087-0.865,13.989-2.573c8.17-2.846,14.331-8.499,17.818-16.35   c9.635-21.695-3.611-54.335-5.154-57.985C317.394,176.625,314.933,174.626,311.993,174.053z M307.255,230.077   c-1.477,3.315-3.79,5.427-7.28,6.643c-2.994,1.043-5.709,1.571-8.069,1.571c-7.879,0-11.344-6.887-12.785-11.529l27.218-27.218   C308.981,209.573,310.809,222.097,307.255,230.077z"/><path d="M208.095,176.521c-2.117-2.117-5.148-3.044-8.088-2.469c-2.939,0.573-5.4,2.572-6.566,5.33   c-1.542,3.65-14.789,36.29-5.153,57.985c3.486,7.851,9.648,13.504,17.817,16.35c4.902,1.708,9.609,2.573,13.989,2.573   c0.001,0,0,0,0.001,0c21.842,0,30.2-20.46,31.565-31.278c0.348-2.759-0.599-5.524-2.565-7.491L208.095,176.521z M220.095,238.291   c-2.36,0-5.075-0.528-8.069-1.571c-3.491-1.216-5.804-3.327-7.281-6.643c-3.554-7.981-1.726-20.506,0.917-30.533l27.215,27.215   C231.432,231.42,227.965,238.291,220.095,238.291z"/><path d="M428.647,166.904c12.087,0,23.449-4.707,31.996-13.253c8.547-8.547,13.254-19.911,13.253-31.997   c0-12.087-4.707-23.45-13.253-31.997c-6.999-6.998-15.891-11.421-25.524-12.79c-1.39-9.585-5.83-18.564-12.776-25.511   c-8.547-8.547-19.91-13.253-31.997-13.253s-23.45,4.706-31.997,13.253c-16.103,16.104-17.509,41.423-4.216,59.135l-18.949,18.948   C314.467,108.006,286.126,95.886,256,95.886s-58.466,12.121-79.183,33.556l-18.946-18.946c5.862-7.788,9.033-17.222,9.033-27.142   c0-12.087-4.707-23.45-13.253-31.996c-8.546-8.547-19.91-13.254-31.997-13.254S98.204,42.81,89.657,51.357   c-6.946,6.946-11.386,15.927-12.776,25.509c-9.634,1.37-18.525,5.792-25.524,12.791c-17.643,17.643-17.643,46.35,0,63.994   c8.546,8.546,19.909,13.253,31.996,13.253c9.919,0,19.351-3.17,27.142-9.033l35.961,35.961c-0.452,4.072-0.687,8.186-0.687,12.284   c0,15.459,3.114,30.332,9.267,44.297l-37.66,48.779c-2.097,2.716-2.467,6.389-0.954,9.469s4.646,5.031,8.078,5.031h26.431   l-40.437,40.437c-7.788-5.862-17.221-9.033-27.142-9.033c-12.087,0-23.45,4.707-31.996,13.253   c-8.547,8.547-13.254,19.911-13.254,31.998c0,12.086,4.707,23.449,13.254,31.996c6.998,6.998,15.891,11.421,25.523,12.79   c1.39,9.585,5.831,18.564,12.777,25.511c8.546,8.546,19.91,13.253,31.997,13.253c0.001,0,0,0,0,0   c12.086,0,23.45-4.707,31.996-13.253c8.546-8.547,13.253-19.91,13.253-31.997c0-9.919-3.169-19.351-9.033-27.141l44.286-44.286   h107.686l44.286,44.285c-5.862,7.788-9.032,17.221-9.033,27.142c0,12.087,4.707,23.45,13.253,31.997   c8.547,8.547,19.91,13.253,31.997,13.253s23.45-4.706,31.997-13.253c6.945-6.946,11.386-15.927,12.776-25.51   c9.634-1.37,18.526-5.793,25.524-12.791c8.546-8.547,13.253-19.91,13.253-31.996c0.001-12.087-4.706-23.451-13.253-31.998   c-8.547-8.546-19.909-13.253-31.996-13.253c-9.92,0-19.352,3.17-27.142,9.033l-40.437-40.437H387.5   c3.432,0,6.564-1.951,8.078-5.031c1.513-3.08,1.143-6.753-0.954-9.469l-37.659-48.778c6.152-13.965,9.267-28.838,9.267-44.298   c0-4.097-0.235-8.211-0.687-12.284l35.96-35.961C409.293,163.733,418.727,166.904,428.647,166.904z M110.741,136.389   c-0.107,0-0.213,0.002-0.32,0.006c-2.497,0.089-4.844,1.211-6.48,3.099c-0.489,0.563-0.922,1.033-1.318,1.43   c-5.147,5.146-11.99,7.981-19.27,7.981c-7.279,0-14.122-2.835-19.268-7.98c-10.625-10.626-10.625-27.914,0-38.538   c5.143-5.143,11.985-7.975,19.266-7.975c0.533,0,1.067,0.016,1.599,0.046c2.563,0.154,5.07-0.804,6.887-2.62   s2.77-4.322,2.621-6.887c-0.452-7.77,2.438-15.375,7.928-20.865c5.147-5.147,11.99-7.981,19.27-7.981   c7.279,0,14.122,2.834,19.269,7.981c5.146,5.146,7.981,11.989,7.981,19.269c0,7.278-2.834,14.121-7.981,19.268   c-0.397,0.397-0.854,0.818-1.437,1.324c-1.885,1.638-3.005,3.984-3.093,6.479c-0.087,2.495,0.865,4.914,2.631,6.68l26.313,26.313   c-0.204,0.294-0.394,0.598-0.594,0.894c-0.457,0.674-0.91,1.349-1.351,2.031c-0.282,0.438-0.558,0.878-0.834,1.319   c-0.417,0.667-0.829,1.337-1.232,2.011c-0.27,0.452-0.536,0.905-0.799,1.36c-0.395,0.685-0.781,1.373-1.161,2.065   c-0.247,0.448-0.494,0.896-0.734,1.349c-0.39,0.733-0.766,1.474-1.139,2.215c-0.209,0.417-0.424,0.83-0.628,1.249   c-0.428,0.879-0.838,1.766-1.243,2.656c-0.13,0.287-0.269,0.571-0.397,0.859c-0.526,1.186-1.032,2.379-1.516,3.581   c-0.103,0.257-0.196,0.517-0.297,0.773c-0.373,0.947-0.738,1.897-1.084,2.854c-0.154,0.425-0.296,0.854-0.445,1.281   c-0.277,0.796-0.55,1.593-0.809,2.396c-0.055,0.171-0.118,0.339-0.172,0.51l-33.795-33.796   C115.414,137.334,113.123,136.389,110.741,136.389z M139.025,394.896c-1.766,1.766-2.718,4.186-2.631,6.681   c0.088,2.495,1.208,4.842,3.093,6.479c0.577,0.501,1.035,0.924,1.436,1.324c5.146,5.146,7.98,11.989,7.98,19.268   c0,7.279-2.834,14.122-7.98,19.269c-5.147,5.147-11.99,7.981-19.269,7.981c-7.279,0-14.123-2.834-19.27-7.981   c-5.49-5.489-8.38-13.095-7.928-20.865c0.149-2.564-0.805-5.07-2.621-6.887c-1.692-1.692-3.984-2.636-6.363-2.636   c-0.174,0-0.349,0.005-0.523,0.016c-0.533,0.03-1.065,0.046-1.599,0.046c-7.281,0-14.124-2.832-19.266-7.975   c-5.146-5.146-7.981-11.989-7.981-19.269c0-7.278,2.834-14.122,7.981-19.269c5.146-5.146,11.99-7.981,19.269-7.981   s14.122,2.835,19.269,7.981c0.397,0.397,0.818,0.854,1.324,1.436c1.637,1.885,3.984,3.006,6.479,3.093   c2.493,0.085,4.915-0.864,6.68-2.63l54.396-54.396v29.641c0,0.429,0.04,0.846,0.098,1.259c0.013,0.096,0.027,0.191,0.044,0.286   c0.069,0.401,0.159,0.796,0.279,1.178c0.014,0.042,0.031,0.081,0.045,0.122c0.116,0.35,0.257,0.688,0.414,1.018   c0.039,0.08,0.076,0.162,0.117,0.241c0.179,0.349,0.377,0.687,0.599,1.007c0.038,0.055,0.079,0.104,0.118,0.158   c0.204,0.281,0.425,0.55,0.66,0.807c0.054,0.058,0.104,0.118,0.16,0.175c0.271,0.28,0.559,0.542,0.863,0.785   c0.061,0.048,0.125,0.093,0.187,0.14c0.279,0.211,0.57,0.406,0.873,0.584c0.056,0.033,0.108,0.068,0.165,0.101   c0.343,0.192,0.702,0.358,1.071,0.505c0.034,0.014,0.064,0.033,0.098,0.046L139.025,394.896z M401.576,375.605   c2.495-0.087,4.842-1.208,6.479-3.093c0.501-0.577,0.924-1.035,1.324-1.436c5.146-5.146,11.989-7.981,19.269-7.981   c7.278,0,14.121,2.835,19.268,7.981c5.147,5.146,7.981,11.99,7.981,19.269c0,7.279-2.834,14.122-7.981,19.27   c-5.142,5.142-11.983,7.974-19.265,7.974c-0.534,0-1.067-0.016-1.601-0.046c-2.556-0.165-5.07,0.804-6.887,2.62   s-2.77,4.322-2.62,6.887c0.451,7.771-2.438,15.375-7.929,20.865c-5.146,5.147-11.99,7.981-19.269,7.981s-14.122-2.834-19.269-7.981   c-5.146-5.146-7.981-11.989-7.981-19.269c0-7.278,2.835-14.121,7.981-19.269c0.397-0.397,0.854-0.817,1.436-1.323   c1.885-1.637,3.006-3.983,3.093-6.479c0.088-2.495-0.865-4.915-2.63-6.681l-38.266-38.265c0.036-0.014,0.069-0.035,0.105-0.049   c0.364-0.146,0.719-0.311,1.058-0.5c0.063-0.034,0.122-0.074,0.184-0.111c0.296-0.174,0.58-0.364,0.853-0.57   c0.066-0.05,0.134-0.097,0.198-0.148c0.303-0.241,0.589-0.501,0.857-0.779c0.058-0.059,0.11-0.122,0.166-0.184   c0.232-0.252,0.45-0.518,0.652-0.797c0.04-0.055,0.083-0.107,0.122-0.163c0.221-0.319,0.419-0.656,0.598-1.004   c0.041-0.081,0.079-0.163,0.118-0.245c0.156-0.328,0.296-0.666,0.412-1.015c0.014-0.042,0.032-0.081,0.045-0.123   c0.121-0.382,0.21-0.776,0.28-1.177c0.017-0.096,0.03-0.191,0.044-0.287c0.058-0.413,0.098-0.83,0.098-1.259v-29.641l54.396,54.396   C396.661,374.74,399.063,375.695,401.576,375.605z M369.182,295.692h-29.841H331.5c-4.971,0-9,4.029-9,9v34.527h-8.929H291.5   v-37.834c0-4.971-4.029-9-9-9s-9,4.029-9,9v37.834h-35v-37.834c0-4.971-4.029-9-9-9s-9,4.029-9,9v37.834h-22.071H189.5v-34.527   c0-4.971-4.029-9-9-9h-7.841h-29.841l29.829-38.636c2.116-2.741,2.472-6.452,0.916-9.546c-6.499-12.913-9.793-26.841-9.793-41.395   c0-4.735,0.363-9.495,1.078-14.147c0.461-2.996,1.071-5.963,1.825-8.889c0.851-3.302,1.896-6.547,3.107-9.729   c1.286-3.378,2.761-6.684,4.437-9.891c2.809-5.375,6.152-10.486,9.995-15.243c0.001-0.001,0.001-0.002,0.002-0.003   C201.835,126.398,228,113.886,256,113.886s54.167,12.513,71.788,34.331c3.394,4.202,6.391,8.685,8.981,13.377   c5.203,9.422,8.742,19.706,10.384,30.374v0.001c0.716,4.654,1.078,9.415,1.078,14.147c0,14.555-3.295,28.482-9.793,41.396   c-1.557,3.094-1.201,6.805,0.915,9.546L369.182,295.692z M361.102,172.819c-0.055-0.172-0.118-0.341-0.173-0.513   c-0.257-0.795-0.528-1.586-0.803-2.375c-0.151-0.435-0.297-0.871-0.453-1.305c-0.344-0.948-0.705-1.889-1.075-2.827   c-0.104-0.265-0.199-0.531-0.306-0.795c-0.483-1.201-0.988-2.394-1.514-3.577c-0.13-0.293-0.271-0.58-0.403-0.872   c-0.403-0.886-0.812-1.771-1.238-2.646c-0.204-0.419-0.418-0.832-0.627-1.248c-0.374-0.743-0.751-1.484-1.141-2.219   c-0.239-0.449-0.484-0.894-0.729-1.34c-0.384-0.697-0.772-1.391-1.17-2.08c-0.26-0.449-0.521-0.895-0.787-1.34   c-0.409-0.686-0.827-1.366-1.252-2.044c-0.269-0.429-0.537-0.858-0.813-1.284c-0.453-0.701-0.919-1.396-1.388-2.087   c-0.192-0.282-0.373-0.571-0.567-0.853l26.313-26.312c1.765-1.766,2.718-4.185,2.63-6.68c-0.087-2.495-1.207-4.842-3.093-6.479   c-0.582-0.506-1.038-0.927-1.436-1.324c-10.625-10.624-10.625-27.912,0-38.536c5.146-5.147,11.99-7.981,19.269-7.981   s14.122,2.834,19.27,7.981c5.49,5.489,8.379,13.095,7.928,20.865c-0.149,2.564,0.804,5.07,2.62,6.887   c1.817,1.816,4.324,2.782,6.887,2.62c7.816-0.436,15.347,2.41,20.865,7.929c10.625,10.625,10.625,27.912,0,38.537   c-5.146,5.146-11.989,7.981-19.268,7.981c-7.279,0-14.122-2.835-19.269-7.981c-0.397-0.397-0.818-0.854-1.324-1.436   c-1.637-1.885-3.983-3.006-6.479-3.093c-2.516-0.088-4.914,0.864-6.681,2.63L361.102,172.819z"/></g></svg>