<?xml version="1.0" ?><!DOCTYPE svg  PUBLIC '-//W3C//DTD SVG 1.1//EN'  'http://www.w3.org/Graphics/SVG/1.1/DTD/svg11.dtd'><svg enable-background="new 0 0 512 512" height="512px" id="Layer_1" version="1.1" viewBox="0 0 512 512" width="512px" xml:space="preserve" xmlns="http://www.w3.org/2000/svg" xmlns:xlink="http://www.w3.org/1999/xlink"><g><path d="M171.417,343.794h-53.746c-4.971,0-9,4.029-9,9v16.081H98.585c-4.971,0-9,4.029-9,9v25.082c0,4.971,4.029,9,9,9h53.746   c4.971,0,9-4.029,9-9v-16.082h10.086c4.971,0,9-4.029,9-9v-25.081C180.417,347.823,176.388,343.794,171.417,343.794z    M143.331,393.957h-35.746v-7.082h10.086h25.66V393.957z M162.417,368.875h-10.086h-25.66v-7.081h35.746V368.875z"/><path d="M327.491,411.957h53.746c4.971,0,9-4.029,9-9v-16.082h10.086c4.971,0,9-4.029,9-9v-25.081c0-4.971-4.029-9-9-9h-53.746   c-4.971,0-9,4.029-9,9v16.081h-10.086c-4.971,0-9,4.029-9,9v25.082C318.491,407.928,322.521,411.957,327.491,411.957z    M355.577,361.794h35.746v7.081h-10.086h-25.66V361.794z M336.491,386.875h10.086h25.66v7.082h-35.746V386.875z"/><path d="M53.878,470.912h21.078h120.092h108.215h120.092h21.078c4.971,0,9-4.029,9-9s-4.029-9-9-9h-12.078V322.338v-86.522   c4.584-0.416,8.176-4.266,8.176-8.958v-36.336c0-4.692-3.592-8.542-8.176-8.958v-20.662c0-4.971-4.029-9-9-9h-0.98l-22.789-43.479   c0-0.015,0.002-0.028,0.002-0.043v-7.454c0.016,0,0.03,0.002,0.046,0.002c10.08,0,19.091-3.284,27.805-6.46   c7.58-2.763,14.739-5.372,21.643-5.372c2.319,0,4.495,0.289,6.651,0.883c2.704,0.745,5.609,0.187,7.845-1.518   c2.234-1.702,3.546-4.35,3.546-7.159V51.294c0-4.05-2.705-7.601-6.609-8.677c-3.684-1.015-7.53-1.529-11.433-1.529   c-10.081,0-19.092,3.284-27.806,6.46c-7.58,2.763-14.739,5.372-21.642,5.372c-0.205,0-0.403-0.015-0.606-0.02   c-1.266-3.438-4.561-5.896-8.439-5.896c-4.971,0-9,4.029-9,9v4.707v30.012v17.063l-23.124,44.115h-0.981c-4.971,0-9,4.029-9,9   v20.662c-4.583,0.417-8.174,4.267-8.174,8.958v36.336c0,4.691,3.591,8.541,8.174,8.958v77.522h-36.219v-18.194h4.428   c4.971,0,9-4.029,9-9v-36.336c0-4.971-4.029-9-9-9h-4.428v-20.62c0-4.971-4.029-9-9-9h-5.359l-39.748-68.847v-5.043   c0.016,0,0.03,0.002,0.046,0.002c10.08,0,19.091-3.284,27.805-6.46c7.58-2.763,14.739-5.372,21.643-5.372   c2.319,0,4.495,0.289,6.651,0.883c2.704,0.745,5.609,0.187,7.845-1.518c2.234-1.702,3.546-4.35,3.546-7.159V87.666   c0-4.05-2.705-7.601-6.609-8.677c-3.684-1.015-7.53-1.529-11.433-1.529c-10.081,0-19.092,3.284-27.806,6.46   c-7.58,2.763-14.739,5.372-21.642,5.372c-0.205,0-0.403-0.015-0.606-0.02c-1.266-3.438-4.561-5.896-8.439-5.896   c-4.971,0-9,4.029-9,9v4.707v30.012v15.246l-39.75,68.847h-5.357c-4.971,0-9,4.029-9,9v20.62h-4.43c-4.971,0-9,4.029-9,9v36.336   c0,4.971,4.029,9,9,9h4.43v18.194h-36.221v-75.565c4.583-0.417,8.174-4.267,8.174-8.958v-36.336c0-4.691-3.591-8.541-8.174-8.958   v-20.662c0-4.971-4.029-9-9-9h-0.98l-22.834-43.558c0.031-0.303,0.047-0.61,0.047-0.921v-7.454c0.016,0,0.031,0.002,0.048,0.002   c10.08,0,19.09-3.284,27.804-6.46c7.58-2.763,14.739-5.372,21.644-5.372c2.319,0,4.495,0.289,6.651,0.883   c2.708,0.745,5.609,0.185,7.845-1.518c2.234-1.702,3.546-4.35,3.546-7.159V52.294c0-4.05-2.705-7.601-6.609-8.677   c-3.684-1.015-7.53-1.529-11.433-1.529c-10.081,0-19.092,3.284-27.806,6.46c-7.58,2.763-14.739,5.372-21.642,5.372   c-0.206,0-0.405-0.015-0.608-0.02c-1.266-3.438-4.561-5.896-8.439-5.896c-4.971,0-9,4.029-9,9v52.376   c0,0.111,0.013,0.219,0.017,0.329l-23.141,44.149h-0.979c-4.971,0-9,4.029-9,9v20.662c-4.584,0.416-8.176,4.266-8.176,8.958v36.336   c0,4.692,3.592,8.542,8.176,8.958v84.565v130.574H53.878c-4.971,0-9,4.029-9,9S48.907,470.912,53.878,470.912z M366.481,169.901   h47.873v11.62h-47.873V169.901z M358.308,199.521h64.223v18.336h-64.223V199.521z M427.438,64.46   c7.58-2.763,14.739-5.372,21.642-5.372c0.014,0,0.028,0,0.042,0v12.008c-0.014,0-0.027,0-0.042,0   c-10.081,0-19.092,3.284-27.807,6.46c-7.579,2.763-14.738,5.372-21.642,5.372c-0.016,0-0.029,0-0.045,0V70.92   c0.016,0,0.03,0,0.046,0C409.713,70.92,418.724,67.636,427.438,64.46z M390.419,129.709l11.633,22.192h-23.266L390.419,129.709z    M366.481,235.857h47.873v77.48h-47.873V235.857z M357.481,331.338h56.873v121.574H312.263V331.338H357.481z M190.618,277.144   v-18.336h4.43h108.215h4.428v18.336h-4.428H195.048H190.618z M286.007,100.832c7.58-2.763,14.739-5.372,21.642-5.372   c0.014,0,0.028,0,0.042,0v12.008c-0.014,0-0.027,0-0.042,0c-10.081,0-19.092,3.284-27.807,6.46   c-7.579,2.763-14.738,5.372-21.642,5.372c-0.016,0-0.029,0-0.045,0v-12.008c0.016,0,0.03,0,0.046,0   C268.281,107.292,277.292,104.008,286.007,100.832z M249.155,162.752l27.964,48.436h-55.93L249.155,162.752z M204.048,229.188   h1.553h87.107h1.555v11.62h-90.215V229.188z M294.263,295.144v27.194v130.574h-90.215V322.338v-27.194H294.263z M83.956,171.858   h47.871v11.62H83.956V171.858z M75.78,201.479h64.221v18.336H75.78V201.479z M83.956,237.814h47.871v75.523H83.956V237.814z    M117.061,71.92c0.016,0,0.031,0,0.047,0c10.08,0,19.091-3.284,27.806-6.46c7.58-2.763,14.739-5.372,21.642-5.372   c0.014,0,0.028,0,0.042,0v12.008c-0.014,0-0.028,0-0.042,0c-10.082,0-19.094,3.284-27.808,6.46   c-7.579,2.763-14.738,5.372-21.641,5.372c-0.016,0-0.03,0-0.046,0C117.06,79.925,117.06,75.923,117.061,71.92z M107.891,131.666   l11.633,22.192H96.259L107.891,131.666z M83.956,331.338h56.871h45.221v121.574H83.956V331.338z"/><path d="M228.862,381.279h45.284c4.971,0,9-4.029,9-9v-30.533c0-15.664-12.743-28.408-28.407-28.408h-6.47   c-15.664,0-28.407,12.744-28.407,28.408v30.533C219.862,377.25,223.892,381.279,228.862,381.279z M237.862,341.746   c0-5.739,4.669-10.408,10.407-10.408h6.47c5.738,0,10.407,4.669,10.407,10.408v21.533h-27.284V341.746z"/></g></svg>