<?xml version="1.0" ?><svg id="Layer_1" style="enable-background:new 0 0 48 48;" version="1.1" viewBox="0 0 48 48" xml:space="preserve" xmlns="http://www.w3.org/2000/svg" xmlns:xlink="http://www.w3.org/1999/xlink"><g><path d="M24,26c-6.6,0-12-5.4-12-12S17.4,2,24,2c6.6,0,12,5.4,12,12S30.6,26,24,26z M24,4c-5.5,0-10,4.5-10,10s4.5,10,10,10   c5.5,0,10-4.5,10-10S29.5,4,24,4z"/></g><g><path d="M4,46H2v-5c0-7.2,5.8-13,13-13h18v2H15C8.9,30,4,34.9,4,41V46z"/></g><g><path d="M38,46.3l-6.7-6.6c-1.8-2.2-1.7-5.3,0.2-7.2c0.9-0.9,2.3-1.5,3.7-1.5c1,0,2,0.3,2.8,0.8c2.1-1.3,4.8-1,6.5,0.7l0,0l0,0   c0.9,0.9,1.5,2.3,1.5,3.6c0,1.3-0.4,2.5-1.2,3.5L38,46.3z M35.2,33c-0.9,0-1.7,0.3-2.3,0.9c-1.2,1.2-1.2,3.1-0.1,4.5l0.1,0.1l5.1,5   l5.3-5.3c0.6-0.7,0.7-1.5,0.7-2.1c0-0.8-0.3-1.6-0.9-2.2l0,0c-1.2-1.2-3.1-1.2-4.5-0.1L38,34.3l-0.6-0.6C36.6,33.1,35.8,33,35.2,33   z"/></g></svg>