<?xml version="1.0" ?><!DOCTYPE svg  PUBLIC '-//W3C//DTD SVG 1.1//EN'  'http://www.w3.org/Graphics/SVG/1.1/DTD/svg11.dtd'><svg enable-background="new 0 0 512 512" height="512px" id="Layer_1" version="1.1" viewBox="0 0 512 512" width="512px" xml:space="preserve" xmlns="http://www.w3.org/2000/svg" xmlns:xlink="http://www.w3.org/1999/xlink"><g><path d="M423.562,105.132c-23.229-23.229-54.112-36.021-86.963-36.021c-29.934,0-58.235,10.623-80.599,30.083   c-22.364-19.46-50.666-30.083-80.599-30.083c-32.851,0-63.734,12.793-86.962,36.021c-23.229,23.228-36.021,54.111-36.021,86.962   c0,32.85,12.793,63.733,36.021,86.963l161.197,161.197c1.757,1.757,4.061,2.636,6.364,2.636c2.304,0,4.606-0.879,6.364-2.636   l161.197-161.197c23.229-23.229,36.021-54.113,36.021-86.963C459.582,159.243,446.79,128.359,423.562,105.132z M410.833,266.328   L256,421.162L101.167,266.328c-19.829-19.829-30.749-46.192-30.749-74.234s10.92-54.405,30.75-74.233   c19.828-19.83,46.192-30.75,74.234-30.75c28.042,0,54.406,10.92,74.234,30.75c1.688,1.688,3.977,2.636,6.364,2.636   c2.387,0,4.677-0.948,6.364-2.636c19.828-19.83,46.192-30.75,74.234-30.75s54.406,10.92,74.234,30.75   c19.829,19.828,30.749,46.191,30.749,74.233S430.662,246.499,410.833,266.328z"/><path d="M297.655,210.94c3.742-6.863,5.733-14.589,5.733-22.629c0-26.131-21.259-47.39-47.389-47.39   c-26.13,0-47.389,21.259-47.389,47.39c0,8.04,1.992,15.767,5.733,22.629c-23.313,10.394-39.183,33.922-39.183,60.178v50.525   c0,4.971,4.029,9,9,9h143.676c4.971,0,9-4.029,9-9v-50.525C336.838,244.862,320.969,221.333,297.655,210.94z M256,158.922   c16.205,0,29.389,13.185,29.389,29.39c0,7.894-3.088,15.303-8.696,20.864c-5.542,5.497-12.891,8.524-20.692,8.524   c-1.463,0-2.91-0.106-4.332-0.315c-6.162-0.907-11.858-3.743-16.361-8.21c-5.607-5.561-8.696-12.971-8.696-20.863   C226.611,172.106,239.795,158.922,256,158.922z M318.838,312.644H193.162v-41.525c0-20.899,13.829-39.431,33.451-45.627   c0.304,0.241,0.616,0.47,0.924,0.702c0.175,0.133,0.348,0.269,0.524,0.398c0.585,0.429,1.178,0.847,1.78,1.247   c0.02,0.014,0.041,0.025,0.062,0.039c0.58,0.384,1.167,0.753,1.762,1.109c0.2,0.12,0.403,0.232,0.604,0.35   c0.421,0.244,0.844,0.485,1.271,0.717c0.238,0.129,0.479,0.252,0.72,0.377c0.4,0.207,0.803,0.41,1.209,0.605   c0.252,0.121,0.506,0.24,0.76,0.357c0.409,0.188,0.821,0.369,1.235,0.545c0.25,0.105,0.498,0.213,0.75,0.314   c0.452,0.184,0.908,0.355,1.366,0.524c0.215,0.079,0.428,0.163,0.645,0.239c0.674,0.238,1.353,0.463,2.038,0.67   c0.027,0.008,0.055,0.015,0.083,0.022c0.659,0.197,1.323,0.379,1.991,0.548c0.228,0.058,0.458,0.106,0.687,0.16   c0.472,0.112,0.945,0.221,1.421,0.317c0.269,0.055,0.539,0.104,0.809,0.153c0.445,0.083,0.891,0.161,1.339,0.23   c0.281,0.044,0.562,0.086,0.843,0.125c0.449,0.062,0.9,0.115,1.353,0.165c0.275,0.03,0.55,0.062,0.827,0.087   c0.49,0.045,0.983,0.077,1.477,0.107c0.237,0.014,0.472,0.033,0.71,0.044c0.73,0.033,1.462,0.054,2.198,0.054   c0.735,0,1.468-0.021,2.198-0.054c0.237-0.011,0.474-0.03,0.711-0.044c0.493-0.03,0.985-0.063,1.476-0.107   c0.277-0.025,0.553-0.057,0.829-0.087c0.451-0.05,0.9-0.104,1.348-0.165c0.284-0.039,0.567-0.081,0.851-0.125   c0.444-0.069,0.887-0.146,1.328-0.229c0.273-0.051,0.547-0.101,0.819-0.156c0.471-0.096,0.938-0.203,1.404-0.313   c0.234-0.056,0.47-0.106,0.703-0.165c0.652-0.165,1.301-0.343,1.944-0.534c0.043-0.014,0.087-0.023,0.13-0.037   c0.683-0.205,1.358-0.43,2.029-0.666c0.225-0.079,0.446-0.166,0.671-0.249c0.447-0.165,0.894-0.334,1.336-0.513   c0.26-0.105,0.516-0.216,0.772-0.325c0.406-0.173,0.81-0.349,1.21-0.533c0.262-0.12,0.522-0.243,0.781-0.368   c0.397-0.191,0.792-0.39,1.184-0.592c0.249-0.129,0.498-0.257,0.744-0.39c0.417-0.226,0.828-0.46,1.238-0.698   c0.212-0.123,0.426-0.24,0.635-0.367c0.575-0.345,1.144-0.703,1.705-1.073c0.038-0.025,0.078-0.049,0.116-0.074   c0.601-0.399,1.19-0.815,1.774-1.242c0.179-0.131,0.353-0.269,0.529-0.402c0.308-0.232,0.618-0.46,0.921-0.7   c19.621,6.197,33.45,24.728,33.45,45.627V312.644z"/></g></svg>