<?xml version="1.0" ?><!DOCTYPE svg  PUBLIC '-//W3C//DTD SVG 1.1//EN'  'http://www.w3.org/Graphics/SVG/1.1/DTD/svg11.dtd'><svg enable-background="new 0 0 512 512" height="512px" id="Layer_1" version="1.1" viewBox="0 0 512 512" width="512px" xml:space="preserve" xmlns="http://www.w3.org/2000/svg" xmlns:xlink="http://www.w3.org/1999/xlink"><g><path d="M379.298,283.057l-69.024-45.911v-50.247h21.61c4.971,0,9-4.029,9-9v-39.313c0-4.971-4.029-9-9-9H317.29l9.148-81.272   c0.308-2.733-0.651-5.458-2.604-7.396c-1.953-1.938-4.691-2.876-7.415-2.547L185.975,54.082c-2.42,0.292-4.619,1.553-6.093,3.494   c-1.474,1.942-2.097,4.399-1.727,6.809l10.021,65.201h-16.221c-4.971,0-9,4.029-9,9v39.313c0,4.971,4.029,9,9,9h29.771v50.247   l-69.024,45.911c-3.055,2.032-4.57,5.716-3.831,9.309l35.854,174.143c0.861,4.184,4.545,7.186,8.815,7.186h164.92   c4.271,0,7.954-3.002,8.815-7.186l28.601-138.916c2.416-2.475,3.237-6.189,1.958-9.51l5.295-25.717   C383.868,288.772,382.353,285.089,379.298,283.057z M197.358,70.841l109.921-13.238l-8.103,71.983h-92.789L197.358,70.841z    M180.955,147.586h17.678c0.007,0,0.015,0.001,0.021,0.001c0.004,0,0.009-0.001,0.013-0.001h108.448c0.019,0,0.037,0,0.056,0   h15.713v21.313h-21.61h-90.547h-29.771V147.586z M215.711,249.463c2.509-1.669,4.016-4.481,4.016-7.494v-55.07h72.547v55.07   c0,3.013,1.507,5.825,4.016,7.494l67.985,45.22l-4.385,21.295c-15.903,7.377-33.456,11.285-51.151,11.329   c-14.569-1.015-27.938-5.109-39.202-9.095c-18.366-12.316-40.158-19.322-63.102-20.272c-19.375-0.801-38.478,2.772-55.905,10.361   l-2.804-13.618L215.711,249.463z M331.124,455.693H180.876l-26.622-129.301c33.886-16.158,75.771-13.457,106.094,7.337   c0.64,0.438,1.333,0.792,2.063,1.053c11.982,4.279,27.975,9.341,45.429,10.505c0.199,0.013,0.399,0.02,0.599,0.02   c16.072,0,32.053-2.789,47.088-8.128L331.124,455.693z"/></g></svg>