<?xml version="1.0" ?><!DOCTYPE svg  PUBLIC '-//W3C//DTD SVG 1.1//EN'  'http://www.w3.org/Graphics/SVG/1.1/DTD/svg11.dtd'><svg enable-background="new 0 0 512 512" height="512px" id="Layer_1" version="1.1" viewBox="0 0 512 512" width="512px" xml:space="preserve" xmlns="http://www.w3.org/2000/svg" xmlns:xlink="http://www.w3.org/1999/xlink"><g><path d="M154.792,292.609c-16.197,21.817-24.759,47.752-24.759,75c0,69.451,56.503,125.953,125.954,125.953   c69.059,0,125.306-55.867,125.939-124.779c0.04-0.472,0.045-0.947,0.01-1.425c-0.053-27.156-8.606-52.999-24.754-74.749   c-14.547-19.594-34.017-34.301-56.601-42.826v-72.762h11.494c11.08,0,20.095-9.015,20.095-20.096v-4.314   c0-11.08-9.015-20.094-20.095-20.094H199.898c-11.08,0-20.095,9.014-20.095,20.094v4.314c0,11.081,9.015,20.096,20.095,20.096   h11.494v72.762C188.809,258.309,169.339,273.016,154.792,292.609z M255.987,475.563c-57.647,0-104.885-45.418-107.81-102.35   c17.053-9.049,37.671-12.762,61.353-11.005c15.468,1.237,29.825,7.591,45.026,14.316c5.563,2.462,11.315,5.007,17.129,7.282   c0.049,0.02,0.098,0.038,0.146,0.056c13.351,4.958,27.502,7.42,41.983,7.42c16.194-0.001,32.8-3.094,49.153-9.201   C355.875,434.788,310.606,475.563,255.987,475.563z M220.393,159.021h-20.494c-1.155,0-2.095-0.94-2.095-2.096v-4.314   c0-1.154,0.939-2.094,2.095-2.094h112.178c1.155,0,2.095,0.939,2.095,2.094v4.314c0,1.155-0.939,2.096-2.095,2.096h-20.494   c-4.971,0-9,4.029-9,9v88.156c0,3.916,2.532,7.383,6.264,8.574c43.235,13.801,72.802,52.618,74.956,97.587   c-29.13,12.729-59.333,14.419-85.631,4.677c-5.425-2.126-10.969-4.579-16.331-6.951c-15.907-7.039-32.356-14.317-50.927-15.804   c-23.112-1.713-43.841,1.22-61.877,8.683c5.528-40.912,33.9-75.363,74.093-88.191c3.731-1.191,6.264-4.658,6.264-8.574v-88.156   C229.393,163.051,225.363,159.021,220.393,159.021z"/><path d="M200.014,76.188c0,14.75,12,26.75,26.75,26.75s26.75-12,26.75-26.75s-12-26.75-26.75-26.75S200.014,61.438,200.014,76.188z    M235.514,76.188c0,4.825-3.925,8.75-8.75,8.75s-8.75-3.925-8.75-8.75s3.925-8.75,8.75-8.75S235.514,71.362,235.514,76.188z"/><path d="M302.264,108.938c24.951,0,45.25-20.299,45.25-45.25s-20.299-45.25-45.25-45.25s-45.25,20.299-45.25,45.25   S277.313,108.938,302.264,108.938z M302.264,36.438c15.025,0,27.25,12.225,27.25,27.25s-12.225,27.25-27.25,27.25   s-27.25-12.225-27.25-27.25S287.238,36.438,302.264,36.438z"/><path d="M243.877,33.804c1.681-1.68,2.641-4,2.641-6.37s-0.971-4.689-2.641-6.359c-1.67-1.681-4-2.641-6.37-2.641   c-2.359,0-4.68,0.96-6.359,2.641c-1.67,1.67-2.63,3.989-2.63,6.359s0.96,4.69,2.63,6.37c1.68,1.67,4,2.63,6.359,2.63   C239.877,36.434,242.197,35.474,243.877,33.804z"/><path d="M249.647,101.073c-1.67,1.671-2.63,3.99-2.63,6.37c0,2.37,0.96,4.681,2.63,6.36c1.67,1.67,3.989,2.63,6.37,2.63   c2.369,0,4.689-0.96,6.359-2.63s2.63-3.99,2.63-6.36c0-2.38-0.96-4.699-2.63-6.37c-1.67-1.67-3.99-2.64-6.359-2.64   C253.637,98.434,251.317,99.403,249.647,101.073z"/></g></svg>