<?xml version="1.0" ?><!DOCTYPE svg  PUBLIC '-//W3C//DTD SVG 1.1//EN'  'http://www.w3.org/Graphics/SVG/1.1/DTD/svg11.dtd'><svg enable-background="new 0 0 512 512" height="512px" id="Layer_1" version="1.1" viewBox="0 0 512 512" width="512px" xml:space="preserve" xmlns="http://www.w3.org/2000/svg" xmlns:xlink="http://www.w3.org/1999/xlink"><g><path d="M256,214.719c-54.864,0-99.5,44.636-99.5,99.5s44.636,99.5,99.5,99.5s99.5-44.636,99.5-99.5S310.864,214.719,256,214.719z    M256,395.719c-44.939,0-81.5-36.561-81.5-81.5s36.561-81.5,81.5-81.5s81.5,36.561,81.5,81.5S300.939,395.719,256,395.719z"/><path d="M321.25,174.163v-29.987l34.587-34.587c1.762-1.762,2.714-4.176,2.631-6.666c-0.084-2.49-1.196-4.834-3.072-6.475   l-58.277-50.943c-1.64-1.434-3.744-2.224-5.923-2.224h-70.391c-2.179,0-4.283,0.79-5.923,2.224l-58.277,50.943   c-1.876,1.641-2.988,3.984-3.072,6.475c-0.083,2.49,0.869,4.904,2.631,6.666l34.587,34.587v29.987   c-24.879,11.589-46.167,29.515-61.915,52.29c-17.883,25.861-27.335,56.211-27.335,87.766c0,85.191,69.309,154.5,154.5,154.5   s154.5-69.309,154.5-154.5c0-31.555-9.452-61.904-27.335-87.766C367.417,203.678,346.129,185.752,321.25,174.163z M208.75,149.447   h94.5v20.5h-94.5V149.447z M224.184,61.281h63.633l48.486,42.385l-27.78,27.781H203.478l-27.78-27.781L224.184,61.281z    M256,450.719c-75.267,0-136.5-61.233-136.5-136.5c0-55.74,33.136-105.119,84.563-126.271h103.873   C359.364,209.1,392.5,258.479,392.5,314.219C392.5,389.485,331.267,450.719,256,450.719z"/></g></svg>