<?xml version="1.0" ?><!DOCTYPE svg  PUBLIC '-//W3C//DTD SVG 1.1//EN'  'http://www.w3.org/Graphics/SVG/1.1/DTD/svg11.dtd'><svg enable-background="new 0 0 512 512" height="512px" id="Layer_1" version="1.1" viewBox="0 0 512 512" width="512px" xml:space="preserve" xmlns="http://www.w3.org/2000/svg" xmlns:xlink="http://www.w3.org/1999/xlink"><g><path d="M260.325,35.862c-2.695-1.477-5.955-1.477-8.65,0L86.842,126.181c-2.883,1.579-4.675,4.605-4.675,7.893v196.21   c0,0.683,0.078,1.363,0.231,2.028c0.503,2.176,13.056,53.789,76.633,98.667c42.603,30.073,92.276,45.252,94.37,45.884   c0.848,0.255,1.723,0.383,2.599,0.383s1.751-0.128,2.599-0.383c2.094-0.632,51.77-15.811,94.372-45.884   c63.577-44.878,76.128-96.492,76.631-98.667c0.153-0.665,0.231-1.346,0.231-2.028v-196.21c0-3.287-1.792-6.313-4.675-7.893   L260.325,35.862z M411.833,329.1c-1.909,6.636-15.981,49.578-69.243,87.174c-34.823,24.582-75.973,39.028-86.593,42.523   c-10.611-3.487-51.689-17.891-86.585-42.523c-53.318-37.636-67.365-80.628-69.245-87.169v-189.7L256,54.018l155.833,85.387V329.1z"/><path d="M251.675,99.218l-109.271,59.874c-2.883,1.579-4.675,4.605-4.675,7.893v154.232c0,1.196,0.238,2.381,0.702,3.484   c4.258,10.141,17.911,36.371,52.642,60.886c21.126,14.912,45.195,25.691,61.668,32.107c1.051,0.41,2.158,0.614,3.267,0.614   s2.217-0.205,3.268-0.614c16.463-6.414,40.524-17.191,61.655-32.107c34.726-24.511,48.381-50.743,52.64-60.884   c0.464-1.104,0.702-2.288,0.702-3.485V166.984c0-3.287-1.792-6.313-4.675-7.893L260.325,99.218   C257.63,97.741,254.37,97.741,251.675,99.218z M356.271,172.315v147.028c-4.359,9.657-16.554,30.949-45.723,51.538   c-18.309,12.924-39.213,22.595-54.542,28.749c-15.338-6.156-36.251-15.829-54.554-28.749   c-29.174-20.592-41.367-41.882-45.725-51.539V172.315L256,117.373L356.271,172.315z"/><path d="M225.623,202.714v22.908h-22.908c-16.75,0-30.378,13.628-30.378,30.378s13.628,30.377,30.378,30.377h22.908v22.909   c0,16.75,13.627,30.377,30.377,30.377s30.377-13.627,30.377-30.377v-22.909h22.908c16.75,0,30.378-13.627,30.378-30.377   s-13.628-30.378-30.378-30.378h-22.908v-22.908c0-16.75-13.627-30.377-30.377-30.377S225.623,185.964,225.623,202.714z    M268.377,202.714v31.908c0,4.971,4.029,9,9,9h31.908c6.825,0,12.378,5.553,12.378,12.378c0,6.824-5.553,12.377-12.378,12.377   h-31.908c-4.971,0-9,4.029-9,9v31.909c0,6.824-5.553,12.377-12.377,12.377s-12.377-5.553-12.377-12.377v-31.909   c0-4.971-4.029-9-9-9h-31.908c-6.825,0-12.378-5.553-12.378-12.377c0-6.825,5.553-12.378,12.378-12.378h31.908c4.971,0,9-4.029,9-9   v-31.908c0-6.824,5.553-12.377,12.377-12.377S268.377,195.89,268.377,202.714z"/></g></svg>